<mxfile host="app.diagrams.net" modified="2020-12-19T08:29:58.150Z" agent="5.0 (Windows NT 10.0; Win64; x64) AppleWebKit/537.36 (KHTML, like Gecko) Chrome/86.0.4240.75 Safari/537.36" etag="oQJ5B_X52u12DR8BUS7j" version="14.0.1" type="github">
  <diagram id="37DTBReg_distsE7NNaz" name="Page-1">
    <mxGraphModel dx="2062" dy="1123" grid="0" gridSize="10" guides="1" tooltips="1" connect="1" arrows="1" fold="1" page="1" pageScale="1" pageWidth="827" pageHeight="1169" math="0" shadow="0">
      <root>
        <mxCell id="0" />
        <mxCell id="1" parent="0" />
        <mxCell id="1OLnOpQIAb67PAGbBJiW-3" value="" style="rounded=0;whiteSpace=wrap;html=1;" vertex="1" parent="1">
          <mxGeometry x="64" y="170" width="276" height="220" as="geometry" />
        </mxCell>
        <mxCell id="1OLnOpQIAb67PAGbBJiW-4" value="m_ids" style="rounded=1;whiteSpace=wrap;html=1;" vertex="1" parent="1">
          <mxGeometry x="80" y="180" width="230" height="50" as="geometry" />
        </mxCell>
        <mxCell id="1OLnOpQIAb67PAGbBJiW-5" value="min_trx_id" style="rounded=1;whiteSpace=wrap;html=1;" vertex="1" parent="1">
          <mxGeometry x="80" y="250" width="230" height="30" as="geometry" />
        </mxCell>
        <mxCell id="1OLnOpQIAb67PAGbBJiW-6" value="max_trx_id" style="rounded=1;whiteSpace=wrap;html=1;" vertex="1" parent="1">
          <mxGeometry x="80" y="300" width="230" height="30" as="geometry" />
        </mxCell>
        <mxCell id="1OLnOpQIAb67PAGbBJiW-7" value="creator_trx_id" style="rounded=1;whiteSpace=wrap;html=1;" vertex="1" parent="1">
          <mxGeometry x="80" y="350" width="230" height="30" as="geometry" />
        </mxCell>
        <mxCell id="1OLnOpQIAb67PAGbBJiW-14" style="edgeStyle=orthogonalEdgeStyle;rounded=0;orthogonalLoop=1;jettySize=auto;html=1;exitX=0;exitY=0.5;exitDx=0;exitDy=0;entryX=1;entryY=0.25;entryDx=0;entryDy=0;" edge="1" parent="1" source="1OLnOpQIAb67PAGbBJiW-8" target="1OLnOpQIAb67PAGbBJiW-3">
          <mxGeometry relative="1" as="geometry" />
        </mxCell>
        <mxCell id="1OLnOpQIAb67PAGbBJiW-41" style="edgeStyle=orthogonalEdgeStyle;rounded=0;orthogonalLoop=1;jettySize=auto;html=1;exitX=1;exitY=0.5;exitDx=0;exitDy=0;" edge="1" parent="1" source="1OLnOpQIAb67PAGbBJiW-8" target="1OLnOpQIAb67PAGbBJiW-26">
          <mxGeometry relative="1" as="geometry" />
        </mxCell>
        <mxCell id="1OLnOpQIAb67PAGbBJiW-42" value="2.查询 只会查询到trx_id=32的值" style="edgeLabel;html=1;align=center;verticalAlign=middle;resizable=0;points=[];" vertex="1" connectable="0" parent="1OLnOpQIAb67PAGbBJiW-41">
          <mxGeometry x="-0.2548" y="2" relative="1" as="geometry">
            <mxPoint as="offset" />
          </mxGeometry>
        </mxCell>
        <mxCell id="1OLnOpQIAb67PAGbBJiW-8" value="事务A id=45" style="rounded=0;whiteSpace=wrap;html=1;" vertex="1" parent="1">
          <mxGeometry x="413" y="195" width="120" height="60" as="geometry" />
        </mxCell>
        <mxCell id="1OLnOpQIAb67PAGbBJiW-43" style="edgeStyle=orthogonalEdgeStyle;rounded=0;orthogonalLoop=1;jettySize=auto;html=1;exitX=1;exitY=0.5;exitDx=0;exitDy=0;entryX=0;entryY=0.5;entryDx=0;entryDy=0;" edge="1" parent="1" source="1OLnOpQIAb67PAGbBJiW-9" target="1OLnOpQIAb67PAGbBJiW-25">
          <mxGeometry relative="1" as="geometry" />
        </mxCell>
        <mxCell id="1OLnOpQIAb67PAGbBJiW-44" value="1.修改" style="edgeLabel;html=1;align=center;verticalAlign=middle;resizable=0;points=[];" vertex="1" connectable="0" parent="1OLnOpQIAb67PAGbBJiW-43">
          <mxGeometry x="-0.2474" y="2" relative="1" as="geometry">
            <mxPoint as="offset" />
          </mxGeometry>
        </mxCell>
        <mxCell id="1OLnOpQIAb67PAGbBJiW-9" value="事务B id=21" style="rounded=0;whiteSpace=wrap;html=1;" vertex="1" parent="1">
          <mxGeometry x="413" y="350" width="120" height="60" as="geometry" />
        </mxCell>
        <mxCell id="1OLnOpQIAb67PAGbBJiW-10" value="21,45" style="text;html=1;strokeColor=none;fillColor=none;align=center;verticalAlign=middle;whiteSpace=wrap;rounded=0;" vertex="1" parent="1">
          <mxGeometry x="230" y="192.5" width="80" height="25" as="geometry" />
        </mxCell>
        <mxCell id="1OLnOpQIAb67PAGbBJiW-11" value="21" style="text;html=1;strokeColor=none;fillColor=none;align=center;verticalAlign=middle;whiteSpace=wrap;rounded=0;" vertex="1" parent="1">
          <mxGeometry x="240" y="255" width="40" height="20" as="geometry" />
        </mxCell>
        <mxCell id="1OLnOpQIAb67PAGbBJiW-12" value="46" style="text;html=1;strokeColor=none;fillColor=none;align=center;verticalAlign=middle;whiteSpace=wrap;rounded=0;" vertex="1" parent="1">
          <mxGeometry x="240" y="305" width="40" height="20" as="geometry" />
        </mxCell>
        <mxCell id="1OLnOpQIAb67PAGbBJiW-13" value="45" style="text;html=1;strokeColor=none;fillColor=none;align=center;verticalAlign=middle;whiteSpace=wrap;rounded=0;" vertex="1" parent="1">
          <mxGeometry x="240" y="355" width="40" height="20" as="geometry" />
        </mxCell>
        <mxCell id="1OLnOpQIAb67PAGbBJiW-22" value="" style="group" vertex="1" connectable="0" parent="1">
          <mxGeometry x="673" y="360" width="350" height="50" as="geometry" />
        </mxCell>
        <mxCell id="1OLnOpQIAb67PAGbBJiW-15" value="" style="rounded=0;whiteSpace=wrap;html=1;" vertex="1" parent="1OLnOpQIAb67PAGbBJiW-22">
          <mxGeometry width="350" height="50" as="geometry" />
        </mxCell>
        <mxCell id="1OLnOpQIAb67PAGbBJiW-16" value="" style="rounded=0;whiteSpace=wrap;html=1;" vertex="1" parent="1OLnOpQIAb67PAGbBJiW-22">
          <mxGeometry width="120" height="50" as="geometry" />
        </mxCell>
        <mxCell id="1OLnOpQIAb67PAGbBJiW-17" value="" style="rounded=0;whiteSpace=wrap;html=1;" vertex="1" parent="1OLnOpQIAb67PAGbBJiW-22">
          <mxGeometry x="120" width="120" height="50" as="geometry" />
        </mxCell>
        <mxCell id="1OLnOpQIAb67PAGbBJiW-18" value="原始值" style="text;html=1;strokeColor=none;fillColor=none;align=center;verticalAlign=middle;whiteSpace=wrap;rounded=0;" vertex="1" parent="1OLnOpQIAb67PAGbBJiW-22">
          <mxGeometry x="32" y="15" width="40" height="20" as="geometry" />
        </mxCell>
        <mxCell id="1OLnOpQIAb67PAGbBJiW-19" value="trx_id=32" style="text;html=1;strokeColor=none;fillColor=none;align=center;verticalAlign=middle;whiteSpace=wrap;rounded=0;" vertex="1" parent="1OLnOpQIAb67PAGbBJiW-22">
          <mxGeometry x="160" y="15" width="40" height="20" as="geometry" />
        </mxCell>
        <mxCell id="1OLnOpQIAb67PAGbBJiW-20" value="roll_pointer" style="text;html=1;strokeColor=none;fillColor=none;align=center;verticalAlign=middle;whiteSpace=wrap;rounded=0;" vertex="1" parent="1OLnOpQIAb67PAGbBJiW-22">
          <mxGeometry x="280" y="15" width="40" height="15" as="geometry" />
        </mxCell>
        <mxCell id="1OLnOpQIAb67PAGbBJiW-23" value="" style="group" vertex="1" connectable="0" parent="1">
          <mxGeometry x="673" y="270" width="350" height="50" as="geometry" />
        </mxCell>
        <mxCell id="1OLnOpQIAb67PAGbBJiW-24" value="" style="rounded=0;whiteSpace=wrap;html=1;" vertex="1" parent="1OLnOpQIAb67PAGbBJiW-23">
          <mxGeometry width="350" height="50" as="geometry" />
        </mxCell>
        <mxCell id="1OLnOpQIAb67PAGbBJiW-25" value="" style="rounded=0;whiteSpace=wrap;html=1;" vertex="1" parent="1OLnOpQIAb67PAGbBJiW-23">
          <mxGeometry width="120" height="50" as="geometry" />
        </mxCell>
        <mxCell id="1OLnOpQIAb67PAGbBJiW-26" value="" style="rounded=0;whiteSpace=wrap;html=1;" vertex="1" parent="1OLnOpQIAb67PAGbBJiW-23">
          <mxGeometry x="120" width="120" height="50" as="geometry" />
        </mxCell>
        <mxCell id="1OLnOpQIAb67PAGbBJiW-27" value="值B" style="text;html=1;strokeColor=none;fillColor=none;align=center;verticalAlign=middle;whiteSpace=wrap;rounded=0;" vertex="1" parent="1OLnOpQIAb67PAGbBJiW-23">
          <mxGeometry x="32" y="15" width="40" height="20" as="geometry" />
        </mxCell>
        <mxCell id="1OLnOpQIAb67PAGbBJiW-28" value="trx_id=21" style="text;html=1;strokeColor=none;fillColor=none;align=center;verticalAlign=middle;whiteSpace=wrap;rounded=0;" vertex="1" parent="1OLnOpQIAb67PAGbBJiW-23">
          <mxGeometry x="160" y="15" width="40" height="20" as="geometry" />
        </mxCell>
        <mxCell id="1OLnOpQIAb67PAGbBJiW-29" value="roll_pointer" style="text;html=1;strokeColor=none;fillColor=none;align=center;verticalAlign=middle;whiteSpace=wrap;rounded=0;" vertex="1" parent="1OLnOpQIAb67PAGbBJiW-23">
          <mxGeometry x="280" y="15" width="40" height="20" as="geometry" />
        </mxCell>
        <mxCell id="1OLnOpQIAb67PAGbBJiW-39" style="edgeStyle=orthogonalEdgeStyle;rounded=0;orthogonalLoop=1;jettySize=auto;html=1;exitX=1;exitY=0.75;exitDx=0;exitDy=0;entryX=1;entryY=0.5;entryDx=0;entryDy=0;" edge="1" parent="1" source="1OLnOpQIAb67PAGbBJiW-24" target="1OLnOpQIAb67PAGbBJiW-15">
          <mxGeometry relative="1" as="geometry" />
        </mxCell>
      </root>
    </mxGraphModel>
  </diagram>
</mxfile>
